<?xml version="1.0" standalone="no"?><!DOCTYPE svg PUBLIC "-//W3C//DTD SVG 1.1//EN" "http://www.w3.org/Graphics/SVG/1.1/DTD/svg11.dtd"><svg t="1720198081789" class="icon" viewBox="0 0 1024 1024" version="1.1" xmlns="http://www.w3.org/2000/svg" p-id="5607" width="200" height="200" xmlns:xlink="http://www.w3.org/1999/xlink"><path d="M512 85.333333a362.666667 362.666667 0 0 1 362.666667 362.666667c0 277.333333-234.666667 512-362.666667 512s-362.666667-234.666667-362.666667-512A362.666667 362.666667 0 0 1 512 85.333333z m234.666667 426.666667a192 192 0 0 0-190.933334 212.266667 192 192 0 0 0 211.2-211.2A193.706667 193.706667 0 0 0 746.666667 512z m-469.333334 0c-6.826667 0-13.610667 0.341333-20.266666 1.066667a192 192 0 0 0 211.2 211.2A192 192 0 0 0 277.333333 512z" fill="#ffffff" p-id="5608"></path></svg>